<svg width="24" height="24" viewBox="0 0 24 24" fill="none" xmlns="http://www.w3.org/2000/svg">
<mask id="path-1-inside-1_82_1415" fill="white">
<path d="M23.7759 7.99803C22.3352 13.498 12.0075 23.9988 12.0075 23.9988C12.0075 23.9988 1.14005 12.998 0.154245 7.99802C-0.831558 2.99802 3.11646 0 6.06916 0C9.02187 0 12.0075 2.49803 12.0075 2.49803C12.0075 2.49803 14.4588 -0.00196232 17.4061 4.52629e-06C20.3534 0.00197136 25.0856 2.99803 23.7759 7.99803Z"/>
</mask>
<path d="M12.0075 23.9988L13.4334 25.4012C13.0579 25.783 12.5451 25.9982 12.0097 25.9988C11.4742 25.9994 10.9609 25.7853 10.5847 25.4044L12.0075 23.9988ZM23.7759 7.99803L21.8411 7.49124L23.7759 7.99803ZM17.4061 4.52629e-06L17.4048 2L17.4061 4.52629e-06ZM12.0075 2.49803L13.4355 3.89828L12.1415 5.21793L10.7241 4.03194L12.0075 2.49803ZM0.154245 7.99802L2.11647 7.61115V7.61115L0.154245 7.99802ZM12.0075 23.9988C10.5815 22.5964 10.5815 22.5965 10.5814 22.5966C10.5814 22.5965 10.5814 22.5965 10.5815 22.5965C10.5816 22.5963 10.5819 22.596 10.5824 22.5956C10.5833 22.5947 10.5848 22.5931 10.5869 22.591C10.5912 22.5866 10.5978 22.5798 10.6069 22.5705C10.625 22.552 10.6526 22.5237 10.689 22.4862C10.7619 22.4111 10.8703 22.299 11.0095 22.1537C11.2879 21.8629 11.6891 21.4395 12.1759 20.9136C13.1508 19.8604 14.4625 18.4026 15.8153 16.7802C17.1718 15.1533 18.5485 13.3856 19.6647 11.7098C20.8087 9.99219 21.5685 8.53194 21.8411 7.49124L25.7106 8.50482C25.2629 10.2141 24.1915 12.129 22.9938 13.9271C21.7684 15.7671 20.2931 17.6559 18.8875 19.3417C17.4783 21.0319 16.1181 22.5431 15.1114 23.6307C14.6075 24.1751 14.1906 24.6151 13.8986 24.9201C13.7526 25.0726 13.6377 25.1915 13.5586 25.2729C13.519 25.3136 13.4884 25.345 13.4674 25.3665C13.4568 25.3773 13.4487 25.3856 13.443 25.3914C13.4402 25.3943 13.4379 25.3966 13.4363 25.3982C13.4355 25.3991 13.4349 25.3997 13.4344 25.4002C13.4341 25.4005 13.4339 25.4007 13.4338 25.4009C13.4335 25.4011 13.4334 25.4012 12.0075 23.9988ZM21.8411 7.49124C22.2894 5.78017 21.737 4.49349 20.7801 3.54586C19.7361 2.51199 18.3105 2.00061 17.4048 2L17.4074 -1.99999C19.449 -1.99863 21.8632 -1.011 23.5947 0.703652C25.4132 2.50454 26.5721 5.21589 25.7106 8.50482L21.8411 7.49124ZM17.4048 2C16.4732 1.99938 15.5058 2.40684 14.6757 2.93535C14.2782 3.18841 13.9536 3.44294 13.7314 3.6317C13.6212 3.7253 13.5387 3.80059 13.4877 3.8485C13.4623 3.87239 13.4449 3.88928 13.436 3.89801C13.4315 3.90236 13.4292 3.90467 13.4291 3.90477C13.4291 3.90481 13.4296 3.90431 13.4306 3.90324C13.4312 3.9027 13.4318 3.90202 13.4326 3.90119C13.433 3.90078 13.4335 3.90033 13.434 3.89985C13.4342 3.8996 13.4346 3.89921 13.4347 3.89909C13.4351 3.89869 13.4355 3.89828 12.0075 2.49803C10.5794 1.09778 10.5798 1.09735 10.5803 1.09692C10.5804 1.09676 10.5809 1.09631 10.5812 1.09599C10.5818 1.09535 10.5825 1.09467 10.5832 1.09396C10.5846 1.09253 10.5862 1.09094 10.5879 1.0892C10.5913 1.08573 10.5954 1.08164 10.6001 1.07695C10.6094 1.06759 10.6212 1.05586 10.6355 1.04191C10.6639 1.01401 10.7021 0.977194 10.7494 0.932732C10.844 0.843929 10.976 0.723918 11.1417 0.583175C11.4712 0.303245 11.9436 -0.0670915 12.5274 -0.438791C13.6598 -1.15978 15.3917 -2.00134 17.4074 -1.99999L17.4048 2ZM12.0075 2.49803C10.7241 4.03194 10.7244 4.03223 10.7247 4.03252C10.7248 4.0326 10.7252 4.03288 10.7254 4.03304C10.7258 4.03338 10.7261 4.03367 10.7264 4.03393C10.7271 4.03445 10.7275 4.03482 10.7278 4.03505C10.7283 4.0355 10.7282 4.03538 10.7274 4.0347C10.7257 4.03335 10.7214 4.02977 10.7144 4.02411C10.7004 4.01279 10.676 3.99322 10.6419 3.96656C10.5736 3.91316 10.467 3.83192 10.328 3.73209C10.0483 3.53115 9.64679 3.26187 9.16857 2.99414C8.16151 2.43034 7.03698 2 6.06916 2V-2C8.05405 -2 9.89867 -1.18132 11.1226 -0.496106C11.7599 -0.13933 12.2893 0.215893 12.6616 0.483335C12.8487 0.617699 12.9985 0.731621 13.1049 0.814828C13.1582 0.856479 13.2008 0.890573 13.232 0.915844C13.2477 0.928484 13.2604 0.938931 13.2702 0.947027C13.2752 0.951075 13.2793 0.954537 13.2828 0.957394C13.2845 0.958822 13.286 0.960099 13.2874 0.961222C13.2881 0.961784 13.2887 0.962307 13.2893 0.962791C13.2896 0.963033 13.29 0.963368 13.2901 0.963489C13.2905 0.963813 13.2909 0.964128 12.0075 2.49803ZM6.06916 2C4.19235 2 1.40872 4.02143 2.11647 7.61115L-1.80798 8.3849C-3.07184 1.9746 2.04057 -2 6.06916 -2V2ZM2.11647 7.61115C2.28031 8.44215 2.94229 9.78383 4.08579 11.4974C5.18556 13.1454 6.58435 14.9261 7.98084 16.5857C9.37272 18.2399 10.738 19.745 11.757 20.8381C12.2658 21.3839 12.6866 21.8252 12.9792 22.129C13.1254 22.2809 13.2395 22.3983 13.3164 22.4771C13.3548 22.5165 13.384 22.5462 13.4032 22.5657C13.4128 22.5755 13.4199 22.5827 13.4244 22.5873C13.4267 22.5896 13.4283 22.5913 13.4293 22.5923C13.4298 22.5928 13.4301 22.5931 13.4303 22.5933C13.4304 22.5934 13.4304 22.5933 13.4304 22.5934C13.4304 22.5933 13.4303 22.5933 12.0075 23.9988C10.5847 25.4044 10.5845 25.4042 10.5843 25.404C10.5842 25.4039 10.5839 25.4036 10.5837 25.4034C10.5832 25.4029 10.5825 25.4022 10.5817 25.4014C10.58 25.3997 10.5777 25.3973 10.5747 25.3943C10.5688 25.3883 10.5603 25.3797 10.5493 25.3685C10.5274 25.3461 10.4953 25.3135 10.4539 25.271C10.3712 25.1862 10.2508 25.0624 10.098 24.9037C9.79238 24.5864 9.35649 24.1292 8.83109 23.5656C7.78164 22.4398 6.36842 20.8822 4.92022 19.1611C3.47663 17.4455 1.97372 15.5386 0.758604 13.7177C-0.4128 11.9623 -1.47892 10.0539 -1.80798 8.3849L2.11647 7.61115Z" fill="#143550" mask="url(#path-1-inside-1_82_1415)"/>
</svg>
